<?xml version="1.0" encoding="UTF-8" standalone="no"?>
<!DOCTYPE svg PUBLIC "-//W3C//DTD SVG 1.1//EN"
 "http://www.w3.org/Graphics/SVG/1.1/DTD/svg11.dtd">
<!-- Generated by graphviz version 5.0.0 (20220707.1540)
 -->
<!-- Pages: 1 -->
<svg width="412pt" height="222pt"
 viewBox="0.00 0.00 411.59 221.60" xmlns="http://www.w3.org/2000/svg" xmlns:xlink="http://www.w3.org/1999/xlink">
<g id="graph0" class="graph" transform="scale(1 1) rotate(0) translate(4 217.6)">
<polygon fill="white" stroke="transparent" points="-4,4 -4,-217.6 407.59,-217.6 407.59,4 -4,4"/>
<!-- api&#45;gateway -->
<g id="node1" class="node">
<title>api&#45;gateway</title>
<polygon fill="none" stroke="black" points="252.08,-124.8 111.22,-124.8 111.22,-88.8 252.08,-88.8 252.08,-124.8"/>
<text text-anchor="middle" x="181.65" y="-102.6" font-family="Times,serif" font-size="14.00">System: API Gateway</text>
</g>
<!-- api&#45;producer -->
<g id="node3" class="node">
<title>api&#45;producer</title>
<polygon fill="none" stroke="black" points="207.46,-36 -0.15,-36 -0.15,0 207.46,0 207.46,-36"/>
<text text-anchor="middle" x="103.65" y="-13.8" font-family="Times,serif" font-size="14.00">System: Java Based API Producer</text>
</g>
<!-- api&#45;gateway&#45;&gt;api&#45;producer -->
<g id="edge4" class="edge">
<title>api&#45;gateway&#45;&gt;api&#45;producer</title>
<path fill="none" stroke="black" d="M143.03,-88.72C135.15,-83.83 127.5,-77.87 121.67,-70.8 115.84,-63.72 111.85,-54.63 109.14,-46.06"/>
<polygon fill="black" stroke="black" points="112.5,-45.1 106.5,-36.37 105.75,-46.94 112.5,-45.1"/>
<text text-anchor="middle" x="150.64" y="-58.2" font-family="Times,serif" font-size="14.00">connects &#160;</text>
</g>
<!-- idp -->
<g id="node4" class="node">
<title>idp</title>
<polygon fill="none" stroke="black" points="403.53,-36 243.78,-36 243.78,0 403.53,0 403.53,-36"/>
<text text-anchor="middle" x="323.65" y="-13.8" font-family="Times,serif" font-size="14.00">System: Identity Provider</text>
</g>
<!-- api&#45;gateway&#45;&gt;idp -->
<g id="edge3" class="edge">
<title>api&#45;gateway&#45;&gt;idp</title>
<path fill="none" stroke="black" d="M197.7,-88.77C208.73,-77.79 224.13,-63.78 239.67,-54 247.71,-48.94 256.6,-44.33 265.51,-40.23"/>
<polygon fill="black" stroke="black" points="267.02,-43.39 274.75,-36.15 264.19,-36.98 267.02,-43.39"/>
<text text-anchor="middle" x="268.64" y="-58.2" font-family="Times,serif" font-size="14.00">connects &#160;</text>
</g>
<!-- api&#45;consumer -->
<g id="node2" class="node">
<title>api&#45;consumer</title>
<polygon fill="none" stroke="black" points="367.27,-213.6 138.03,-213.6 138.03,-177.6 367.27,-177.6 367.27,-213.6"/>
<text text-anchor="middle" x="252.65" y="-191.4" font-family="Times,serif" font-size="14.00">System: Python Based API Consumer</text>
</g>
<!-- api&#45;consumer&#45;&gt;api&#45;gateway -->
<g id="edge2" class="edge">
<title>api&#45;consumer&#45;&gt;api&#45;gateway</title>
<path fill="none" stroke="black" d="M238.62,-177.45C228.22,-164.73 213.87,-147.19 202.18,-132.89"/>
<polygon fill="black" stroke="black" points="204.69,-130.44 195.65,-124.91 199.27,-134.87 204.69,-130.44"/>
<text text-anchor="middle" x="251.64" y="-147" font-family="Times,serif" font-size="14.00">connects &#160;</text>
</g>
<!-- api&#45;consumer&#45;&gt;idp -->
<g id="edge1" class="edge">
<title>api&#45;consumer&#45;&gt;idp</title>
<path fill="none" stroke="black" d="M274.25,-177.39C279.63,-172.18 284.92,-166.1 288.65,-159.6 309.31,-123.67 317.87,-75.75 321.35,-46.15"/>
<polygon fill="black" stroke="black" points="324.84,-46.45 322.42,-36.14 317.88,-45.71 324.84,-46.45"/>
<text text-anchor="middle" x="341.64" y="-102.6" font-family="Times,serif" font-size="14.00">connects &#160;</text>
</g>
</g>
</svg>
